<svg xmlns="http://www.w3.org/2000/svg" width="86.466" height="47.128" viewBox="0 0 86.466 47.128">
  <g id="carro" transform="translate(0 -112.653)">
    <path id="Caminho_39" data-name="Caminho 39" d="M164.683,142.05a.061.061,0,0,1-.061-.061V140.9l-1.327-1.66v-6.1l1.327-2.588v-1.51a7.043,7.043,0,0,0-.969-3.567l-5.481-9.341a7.051,7.051,0,0,0-6.081-3.481H121.105a4.744,4.744,0,0,0-3.113,1.165L98.75,130.558v23.473h67.7a1.521,1.521,0,0,0,1.521-1.521v-7.169A3.291,3.291,0,0,0,164.683,142.05Z" transform="translate(-81.509 0)" fill="#f79595"/>
    <g id="Grupo_2" data-name="Grupo 2" transform="translate(0 130.558)">
      <path id="Caminho_40" data-name="Caminho 40" d="M17.241,215.2H7.888A7.881,7.881,0,0,0,1.211,218.9l.777.778L1.534,223.3,0,224.176v12.988a1.512,1.512,0,0,0,1.512,1.512H17.241l9.88-3.614V221.535Z" transform="translate(0 -215.203)" fill="#f79595"/>
      <path id="Caminho_41" data-name="Caminho 41" d="M98.75,275.836v12.886l8.664-3.169A11.228,11.228,0,0,0,98.75,275.836Z" transform="translate(-81.509 -265.25)" fill="#f47c7c"/>
    </g>
    <path id="Caminho_42" data-name="Caminho 42" d="M14.768,225.512l-.24,0a1.613,1.613,0,0,1-1.475-2.318,7.89,7.89,0,0,1,7.13-4.512h2.49L17.241,215.2H7.888a7.881,7.881,0,0,0-6.678,3.691l.777.779L1.534,223.3,0,224.176v12.988a1.512,1.512,0,0,0,1.512,1.512H12.3v-3.614H25.847A11.218,11.218,0,0,0,14.768,225.512Z" transform="translate(0 -84.645)" fill="#ee6161"/>
    <path id="Caminho_43" data-name="Caminho 43" d="M101.692,134.039h14.617a8.9,8.9,0,0,0,6.445-2.764l16.787-17.643a4.741,4.741,0,0,1,1.807-.979H121.105a4.744,4.744,0,0,0-3.113,1.165L98.75,130.558v4.051A7.859,7.859,0,0,1,101.692,134.039Z" transform="translate(-81.509)" fill="#f47c7c"/>
    <g id="Grupo_10" data-name="Grupo 10" transform="translate(0 117.891)">
      <g id="Grupo_3" data-name="Grupo 3" transform="translate(46.326 5.328)">
        <path id="Caminho_44" data-name="Caminho 44" d="M266.641,203.33a1.31,1.31,0,0,1-1.18-1.875l1.573-3.284,2.456-5.479a.478.478,0,0,0,.042-.2V174.479a1.309,1.309,0,1,1,2.619,0V192.5a3.081,3.081,0,0,1-.271,1.268l-2.463,5.494-.014.03-1.58,3.3A1.309,1.309,0,0,1,266.641,203.33Z" transform="translate(-265.333 -173.17)" fill="#f47c7c"/>
      </g>
      <g id="Grupo_4" data-name="Grupo 4" transform="translate(0 30.879)">
        <path id="Caminho_45" data-name="Caminho 45" d="M86.466,319.513v3.74a1.521,1.521,0,0,1-1.521,1.521H1.512A1.512,1.512,0,0,1,0,323.262v-3.749Z" transform="translate(0 -319.513)" fill="#ee6161"/>
        <path id="Caminho_46" data-name="Caminho 46" d="M14.768,319.513H0v3.749a1.512,1.512,0,0,0,1.512,1.512H14.768Z" transform="translate(0 -319.513)" fill="#e94444"/>
      </g>
      <path id="Caminho_47" data-name="Caminho 47" d="M115.8,319.513H109.43v5.261h6.69a11.156,11.156,0,0,0-.321-5.261Z" transform="translate(-90.324 -288.634)" fill="#e94444"/>
      <circle id="Elipse_5" data-name="Elipse 5" cx="7.711" cy="7.711" r="7.711" transform="translate(7.057 26.467)" fill="#736572"/>
      <path id="Caminho_48" data-name="Caminho 48" d="M360.255,274.246a11.191,11.191,0,0,0-11.028,13.164h22.056a11.191,11.191,0,0,0-11.028-13.164Z" transform="translate(-288.109 -251.27)" fill="#f47c7c"/>
      <path id="Caminho_49" data-name="Caminho 49" d="M349.053,322.813a11.224,11.224,0,0,0,.175,1.961h22.056a11.154,11.154,0,0,0-.321-5.261H349.549A11.169,11.169,0,0,0,349.053,322.813Z" transform="translate(-288.11 -288.634)" fill="#e94444"/>
      <circle id="Elipse_6" data-name="Elipse 6" cx="7.711" cy="7.711" r="7.711" transform="translate(64.435 26.467)" fill="#736572"/>
      <path id="Caminho_50" data-name="Caminho 50" d="M48.131,301.4a7.7,7.7,0,0,1,3.377-6.377,7.712,7.712,0,1,0,.961,13.311,7.712,7.712,0,0,1-4.338-6.934Z" transform="translate(-33.363 -267.778)" fill="#615260"/>
      <path id="Caminho_51" data-name="Caminho 51" d="M376.763,301.4a7.7,7.7,0,0,1,3.377-6.377,7.712,7.712,0,1,0,.961,13.311,7.712,7.712,0,0,1-4.338-6.934Z" transform="translate(-304.617 -267.778)" fill="#615260"/>
      <g id="XMLID_199_" transform="translate(25.679 0)">
        <g id="Grupo_5" data-name="Grupo 5">
          <path id="Caminho_52" data-name="Caminho 52" d="M170.614,142.653h-9.1a.883.883,0,0,0-.58.217L147.171,154.84a.27.27,0,0,0,.178.474h23.265l2.953-1.253v-8.5Z" transform="translate(-147.078 -142.653)" fill="#d5eaff"/>
          <path id="Caminho_53" data-name="Caminho 53" d="M173.075,145.074l-2.461-2.421h-9.1a.883.883,0,0,0-.58.217L147.171,154.84a.27.27,0,0,0,.178.474h15.983Z" transform="translate(-147.078 -142.653)" fill="#b8ddff"/>
          <path id="Caminho_54" data-name="Caminho 54" d="M319.949,142.653H303.811l-1.709,2.2v9.206l1.709,1.253h15.667a1.319,1.319,0,0,0,1.32-1.32v-10.49a.85.85,0,0,0-.849-.852Z" transform="translate(-275.035 -142.653)" fill="#d5eaff"/>
          <path id="Caminho_55" data-name="Caminho 55" d="M281.88,142.653h5.24v12.662h-5.24Z" transform="translate(-258.344 -142.653)" fill="#f47c7c"/>
          <path id="Caminho_56" data-name="Caminho 56" d="M281.88,142.653v5.008l4.765-5.008Z" transform="translate(-258.344 -142.653)" fill="#ee6161"/>
        </g>
      </g>
      <g id="XMLID_206_" transform="translate(0 16.358)">
        <g id="Grupo_7" data-name="Grupo 7">
          <g id="XMLID_207_">
            <g id="Grupo_6" data-name="Grupo 6">
              <path id="Caminho_57" data-name="Caminho 57" d="M6.738,237.116a2.641,2.641,0,0,1-1.868,4.508H0v-1.083a7.846,7.846,0,0,1,1.21-4.2H4.87A2.632,2.632,0,0,1,6.738,237.116Z" transform="translate(0 -236.343)" fill="#fedf30"/>
            </g>
          </g>
        </g>
      </g>
      <g id="Grupo_8" data-name="Grupo 8" transform="translate(43.323 16.021)">
        <path id="Caminho_58" data-name="Caminho 58" d="M251.958,237.031h-2.516a1.309,1.309,0,0,1,0-2.619h2.516a1.309,1.309,0,0,1,0,2.619Z" transform="translate(-248.132 -234.412)" fill="#f47c7c"/>
      </g>
      <g id="XMLID_208_" transform="translate(77.737 15.742)">
        <g id="Grupo_9" data-name="Grupo 9">
          <path id="Caminho_59" data-name="Caminho 59" d="M449.683,232.815H446.31l-1.07,2.095v3.738a1.439,1.439,0,0,0,1.439,1.437h3.937V234.91Z" transform="translate(-445.24 -232.815)" fill="#e94444"/>
        </g>
      </g>
      <path id="Caminho_60" data-name="Caminho 60" d="M72.893,329.192a2.473,2.473,0,1,1,2.473-2.473A2.476,2.476,0,0,1,72.893,329.192Z" transform="translate(-58.125 -292.54)" fill="#f9f7f8"/>
      <path id="Caminho_61" data-name="Caminho 61" d="M73.482,329.118a7.738,7.738,0,0,1-.351-4.861c-.078-.007-.157-.012-.237-.012a2.473,2.473,0,1,0,.588,4.873Z" transform="translate(-58.126 -292.54)" fill="#d7d0d6"/>
      <path id="Caminho_62" data-name="Caminho 62" d="M401.525,329.192A2.473,2.473,0,1,1,404,326.718,2.476,2.476,0,0,1,401.525,329.192Z" transform="translate(-329.379 -292.54)" fill="#f9f7f8"/>
      <path id="Caminho_63" data-name="Caminho 63" d="M402.115,329.122a7.753,7.753,0,0,1-.353-4.864c-.078-.008-.156-.012-.236-.012a2.473,2.473,0,1,0,.589,4.876Z" transform="translate(-329.379 -292.54)" fill="#d7d0d6"/>
    </g>
    <path id="Caminho_64" data-name="Caminho 64" d="M450.616,215.173v5.175H445.24v-3.736a1.439,1.439,0,0,1,1.439-1.439Z" transform="translate(-367.503 -84.62)" fill="#fdb441"/>
  </g>
</svg>
