<svg xmlns="http://www.w3.org/2000/svg" xmlns:xlink="http://www.w3.org/1999/xlink" width="344.164" height="205.347" viewBox="0 0 344.164 205.347">
  <defs>
    <clipPath id="clip-path">
      <rect width="201.167" height="205.347" fill="none"/>
    </clipPath>
    <clipPath id="clip-path-2">
      <rect width="50.164" height="99.051" fill="none"/>
    </clipPath>
    <clipPath id="clip-path-3">
      <rect width="45.285" height="94.95" fill="none"/>
    </clipPath>
  </defs>
  <g id="Grupo_53" data-name="Grupo 53" transform="translate(-201 -206.389)">
    <g id="Componente_8_1" data-name="Componente 8 – 1" transform="translate(270.267 206.389)" clip-path="url(#clip-path)">
      <path id="Caminho_89" data-name="Caminho 89" d="M36.131,10.531a36.035,36.035,0,0,0,0,50.963c24.3,24.3,56.737,33.922,70.812,19.848s4.451-46.513-19.848-70.812A36.035,36.035,0,0,0,36.131,10.531Z" transform="translate(-15.32 0.025)" fill="#56b4dd"/>
      <path id="Caminho_90" data-name="Caminho 90" d="M109.425,83.823a25.714,25.714,0,0,0-40.1,31.637c20.249,16.079,43.465,22.535,57.058,15C131.96,119.149,124.822,99.18,109.425,83.823Z" transform="translate(-39.255 -45.681)" opacity="0.1"/>
      <path id="Caminho_91" data-name="Caminho 91" d="M115.161,123.3H32a35.79,35.79,0,0,0,7.979,12.069c24.3,24.3,56.737,33.922,70.812,19.848C117.928,148.16,118.971,136.372,115.161,123.3Z" transform="translate(-19.169 -73.85)" opacity="0.1"/>
      <path id="Caminho_92" data-name="Caminho 92" d="M334.159,10.531a36.035,36.035,0,0,1,0,50.963c-24.3,24.3-56.737,33.962-70.811,19.888S258.9,34.829,283.2,10.531A36.035,36.035,0,0,1,334.159,10.531Z" transform="translate(-153.842 0.025)" fill="#56b4dd"/>
      <path id="Caminho_93" data-name="Caminho 93" d="M298.448,83.823a25.714,25.714,0,0,1,40.1,31.637c-20.249,16.079-43.465,22.535-57.058,15C275.914,119.149,283.051,99.18,298.448,83.823Z" transform="translate(-167.491 -45.681)" opacity="0.1"/>
      <path id="Caminho_94" data-name="Caminho 94" d="M258.969,123.3h83.161a35.79,35.79,0,0,1-7.979,12.069c-24.3,24.3-56.737,33.962-70.811,19.888C256.243,148.16,255.16,136.372,258.969,123.3Z" transform="translate(-153.835 -73.85)" opacity="0.1"/>
      <path id="Caminho_95" data-name="Caminho 95" d="M191.584,183.291h-182A9.583,9.583,0,0,1,0,173.708V155.183A9.583,9.583,0,0,1,9.583,145.6h182a9.583,9.583,0,0,1,9.583,9.583v18.525A9.635,9.635,0,0,1,191.584,183.291Z" transform="translate(0 -87.209)" fill="#f3de6a"/>
      <rect id="Retângulo_12" data-name="Retângulo 12" width="39.255" height="37.651" transform="translate(80.956 58.391)" fill="#56b4dd"/>
      <rect id="Retângulo_13" data-name="Retângulo 13" width="39.255" height="37.651" transform="translate(80.956 58.391)" fill="#fff" opacity="0.2"/>
      <path id="Caminho_96" data-name="Caminho 96" d="M19.928,173.708V155.183a9.583,9.583,0,0,1,9.583-9.583H9.583A9.583,9.583,0,0,0,0,155.183v18.525a9.583,9.583,0,0,0,9.583,9.583H29.511A9.583,9.583,0,0,1,19.928,173.708Z" transform="translate(0 -87.209)" opacity="0.1"/>
      <path id="Caminho_97" data-name="Caminho 97" d="M207.465,239.6H32v99.481a9.754,9.754,0,0,0,9.744,9.744H197.681a9.754,9.754,0,0,0,9.744-9.744V239.6Z" transform="translate(-19.169 -143.517)" fill="#f5a85b"/>
      <path id="Caminho_98" data-name="Caminho 98" d="M80.518,282.965a72.69,72.69,0,0,0-19.207-5.614A72.69,72.69,0,0,0,55.7,258.145a2.7,2.7,0,0,0-4.932,0,72.69,72.69,0,0,0-5.614,19.207A70.2,70.2,0,0,0,32,280.559V290.3a70.2,70.2,0,0,0,13.152,3.208,72.69,72.69,0,0,0,5.614,19.207,2.7,2.7,0,0,0,4.932,0,72.69,72.69,0,0,0,5.614-19.207A72.69,72.69,0,0,0,80.518,287.9,2.7,2.7,0,0,0,80.518,282.965Zm119.129,14.074a72.691,72.691,0,0,0-5.614-19.207,2.7,2.7,0,0,0-4.932,0,72.692,72.692,0,0,0-5.614,19.207,72.69,72.69,0,0,0-19.207,5.614,2.7,2.7,0,0,0,0,4.932,72.69,72.69,0,0,0,19.207,5.614A72.691,72.691,0,0,0,189.1,332.4a2.7,2.7,0,0,0,4.932,0,72.69,72.69,0,0,0,5.614-19.207,68.91,68.91,0,0,0,7.819-1.6V298.643A68.9,68.9,0,0,0,199.646,297.039Zm-16.159-55.053a2.668,2.668,0,0,0,1.6-2.486h-57.74a2.668,2.668,0,0,0,1.6,2.486,72.69,72.69,0,0,0,19.207,5.614,72.689,72.689,0,0,0,5.614,19.207,2.7,2.7,0,0,0,4.932,0A72.69,72.69,0,0,0,164.32,247.6,70.857,70.857,0,0,0,183.487,241.986Z" transform="translate(-19.169 -143.457)" fill="#fff" opacity="0.4"/>
      <rect id="Retângulo_14" data-name="Retângulo 14" width="39.255" height="109.265" transform="translate(80.956 96.083)" fill="#56b4dd"/>
      <path id="Caminho_99" data-name="Caminho 99" d="M207.465,260.651V239.6H32v99.481a9.754,9.754,0,0,0,9.744,9.744H58.1a9.754,9.754,0,0,1-9.744-9.744v-78.43Z" transform="translate(-19.169 -143.517)" opacity="0.1"/>
      <g id="Grupo_16" data-name="Grupo 16" transform="translate(63.073 68.335)">
        <path id="Caminho_100" data-name="Caminho 100" d="M160.307,182.148a3.029,3.029,0,0,1-3.007-3.007v-5.734a3.007,3.007,0,0,1,6.015,0v5.734A3,3,0,0,1,160.307,182.148Z" transform="translate(-157.3 -170.4)" fill="#4a5058"/>
        <path id="Caminho_101" data-name="Caminho 101" d="M332.307,182.148a3.029,3.029,0,0,1-3.007-3.007v-5.734a3.007,3.007,0,0,1,6.015,0v5.734A3.029,3.029,0,0,1,332.307,182.148Z" transform="translate(-260.333 -170.4)" fill="#4a5058"/>
        <path id="Caminho_102" data-name="Caminho 102" d="M232.745,195.42a14.985,14.985,0,0,1-11.348-5.173,3.012,3.012,0,0,1,4.531-3.97,9.109,9.109,0,0,0,6.817,3.128,8.971,8.971,0,0,0,6.816-3.128,3.012,3.012,0,0,1,4.531,3.97A14.985,14.985,0,0,1,232.745,195.42Z" transform="translate(-195.254 -179.301)" fill="#4a5058"/>
      </g>
    </g>
    <g id="Componente_10_1" data-name="Componente 10 – 1" transform="translate(495 246)" clip-path="url(#clip-path-2)">
      <path id="Caminho_103" data-name="Caminho 103" d="M11.046,0a6.344,6.344,0,0,1,4.533,1.873,6.423,6.423,0,0,1,0,9.088,9.409,9.409,0,0,0,.021,13.3,22.274,22.274,0,0,1,0,31.478,9.429,9.429,0,0,0,0,13.3A6.426,6.426,0,1,1,6.513,78.13a22.274,22.274,0,0,1,0-31.478,9.429,9.429,0,0,0,0-13.3,22.274,22.274,0,0,1,0-31.478A6.38,6.38,0,0,1,11.046,0Z" fill="#f5a85b"/>
      <path id="Caminho_104" data-name="Caminho 104" d="M15.607,34.889a9.429,9.429,0,0,1-2.724-5.853c-3.831-3.7-8.449-9.194-7.3-15.537a22.274,22.274,0,0,0,.936,30.477,9.42,9.42,0,0,1,2.469,8.939C12.776,56.811,16.607,61,15.862,66.09A22.292,22.292,0,0,0,15.607,34.889Z" transform="translate(-0.007 -10.627)" opacity="0.1"/>
      <path id="Caminho_105" data-name="Caminho 105" d="M15.6,31.19c-3.98-3.7-14.749-12.3-9.088-22.39a22.274,22.274,0,0,0,0,31.478,9.984,9.984,0,0,1,.979,1.149c5.321,5.981,14.174,12.28,8.109,21.24A22.313,22.313,0,0,0,15.6,31.19Z" transform="translate(0 -6.927)" fill="#f3de6a"/>
      <path id="Caminho_106" data-name="Caminho 106" d="M142.846,252.352a6.344,6.344,0,0,1-4.533-1.873,22.274,22.274,0,0,1,0-31.478,9.4,9.4,0,0,0,0-13.281,6.426,6.426,0,1,1,9.088-9.088,22.248,22.248,0,0,1,0,31.456,9.429,9.429,0,0,0,0,13.3,6.423,6.423,0,0,1,0,9.088A6.557,6.557,0,0,1,142.846,252.352Z" transform="translate(-103.749 -153.301)" fill="#56b4dd"/>
      <path id="Caminho_107" data-name="Caminho 107" d="M138.269,229.589a9.43,9.43,0,0,0,2.724-5.853c3.831-3.7,8.449-9.194,7.3-15.537a22.274,22.274,0,0,1-.936,30.477,9.42,9.42,0,0,0-2.469,8.939c-3.788,3.895-7.619,8.088-6.874,13.174A22.292,22.292,0,0,1,138.269,229.589Z" transform="translate(-103.727 -163.889)" opacity="0.1"/>
      <path id="Caminho_108" data-name="Caminho 108" d="M138.272,225.89c3.98-3.725,14.728-12.3,9.088-22.39a22.274,22.274,0,0,1,0,31.478,9.984,9.984,0,0,0-.979,1.149c-5.321,5.981-14.174,12.28-8.109,21.24A22.313,22.313,0,0,1,138.272,225.89Z" transform="translate(-103.729 -160.189)" fill="#9dd3ec"/>
      <circle id="Elipse_12" data-name="Elipse 12" cx="4.406" cy="4.406" r="4.406" transform="translate(2.235 84.962)" fill="#56b4dd"/>
      <circle id="Elipse_13" data-name="Elipse 13" cx="4.406" cy="4.406" r="4.406" transform="translate(31.158 17.729)" fill="#f3de6a"/>
    </g>
    <g id="Componente_9_1" data-name="Componente 9 – 1" transform="translate(201 262)" clip-path="url(#clip-path-3)">
      <path id="Caminho_109" data-name="Caminho 109" d="M10.192,0a5.853,5.853,0,0,1,4.183,1.728,5.926,5.926,0,0,1,0,8.385,8.682,8.682,0,0,0,.02,12.274,20.552,20.552,0,0,1,0,29.045,8.7,8.7,0,0,0,0,12.274,5.929,5.929,0,1,1-8.385,8.385,20.552,20.552,0,0,1,0-29.045,8.7,8.7,0,0,0,0-12.274,20.552,20.552,0,0,1,0-29.045A5.886,5.886,0,0,1,10.192,0Z" fill="#f5a85b"/>
      <path id="Caminho_110" data-name="Caminho 110" d="M14.4,33.236a8.7,8.7,0,0,1-2.514-5.4c-3.535-3.417-7.8-8.484-6.736-14.336a20.552,20.552,0,0,0,.864,28.122A8.692,8.692,0,0,1,8.294,49.87c3.5,3.594,7.03,7.462,6.343,12.156A20.569,20.569,0,0,0,14.4,33.236Z" transform="translate(-0.007 -10.849)" opacity="0.1"/>
      <path id="Caminho_111" data-name="Caminho 111" d="M14.395,29.459C10.722,26.042.786,18.108,6.009,8.8a20.552,20.552,0,0,0,0,29.045,9.212,9.212,0,0,1,.9,1.06c4.909,5.518,13.079,11.331,7.482,19.6A20.588,20.588,0,0,0,14.395,29.459Z" transform="translate(0 -7.072)" fill="#f3de6a"/>
      <path id="Caminho_112" data-name="Caminho 112" d="M136.892,266a5.853,5.853,0,0,1-4.183-1.728,20.552,20.552,0,0,1,0-29.045,8.676,8.676,0,0,0,0-12.254,5.929,5.929,0,1,1,8.385-8.385,20.529,20.529,0,0,1,0,29.025,8.7,8.7,0,0,0,0,12.274,5.926,5.926,0,0,1,0,8.385A6.015,6.015,0,0,1,136.892,266Z" transform="translate(-101.819 -171.051)" fill="#56b4dd"/>
      <path id="Caminho_113" data-name="Caminho 113" d="M132.707,245.936a8.7,8.7,0,0,0,2.514-5.4c3.535-3.417,7.8-8.484,6.736-14.336a20.552,20.552,0,0,1-.864,28.122,8.692,8.692,0,0,0-2.278,8.248c-3.5,3.594-7.03,7.462-6.343,12.156A20.532,20.532,0,0,1,132.707,245.936Z" transform="translate(-101.816 -181.779)" opacity="0.1"/>
      <path id="Caminho_114" data-name="Caminho 114" d="M132.709,242.159c3.672-3.437,13.589-11.351,8.385-20.659a20.552,20.552,0,0,1,0,29.045,9.215,9.215,0,0,0-.9,1.06c-4.909,5.518-13.079,11.331-7.482,19.6A20.552,20.552,0,0,1,132.709,242.159Z" transform="translate(-101.819 -178.002)" fill="#9dd3ec"/>
      <circle id="Elipse_14" data-name="Elipse 14" cx="4.065" cy="4.065" r="4.065" transform="translate(26.158 23.114)" fill="#f5a85b"/>
      <g id="Grupo_18" data-name="Grupo 18" transform="translate(6.441 4.772)">
        <circle id="Elipse_15" data-name="Elipse 15" cx="4.065" cy="4.065" r="4.065" transform="translate(30.517)" fill="#9dd3ec"/>
        <circle id="Elipse_16" data-name="Elipse 16" cx="4.065" cy="4.065" r="4.065" transform="translate(0 74.232)" fill="#9dd3ec"/>
      </g>
    </g>
  </g>
</svg>
