<svg xmlns="http://www.w3.org/2000/svg" width="24.695" height="24.696" viewBox="0 0 24.695 24.696">
  <path id="instagram-glyph-1" d="M8.233,12.348a4.116,4.116,0,1,1,4.115,4.116,4.116,4.116,0,0,1-4.115-4.116m-2.225,0a6.341,6.341,0,1,0,6.341-6.341,6.34,6.34,0,0,0-6.341,6.341m11.45-6.592A1.482,1.482,0,1,0,18.94,4.275a1.482,1.482,0,0,0-1.482,1.481M7.359,22.4a6.821,6.821,0,0,1-2.293-.425,3.841,3.841,0,0,1-1.42-.924,3.817,3.817,0,0,1-.924-1.419A6.821,6.821,0,0,1,2.3,17.338c-.06-1.3-.072-1.693-.072-4.99s.013-3.687.072-4.99a6.853,6.853,0,0,1,.425-2.293,3.841,3.841,0,0,1,.924-1.42,3.812,3.812,0,0,1,1.42-.924A6.821,6.821,0,0,1,7.359,2.3c1.3-.06,1.693-.072,4.989-.072s3.687.013,4.99.072a6.853,6.853,0,0,1,2.293.425,3.828,3.828,0,0,1,1.42.924,3.833,3.833,0,0,1,.924,1.42A6.821,6.821,0,0,1,22.4,7.358c.06,1.3.072,1.693.072,4.99s-.012,3.687-.072,4.99a6.847,6.847,0,0,1-.425,2.293,4.088,4.088,0,0,1-2.344,2.343,6.821,6.821,0,0,1-2.293.425c-1.3.06-1.693.072-4.99.072s-3.687-.012-4.989-.072M7.257.075a9.057,9.057,0,0,0-3,.574A6.059,6.059,0,0,0,2.073,2.073,6.042,6.042,0,0,0,.648,4.26a9.057,9.057,0,0,0-.574,3C.014,8.574,0,8.995,0,12.348s.014,3.774.075,5.091a9.057,9.057,0,0,0,.574,3,6.038,6.038,0,0,0,1.424,2.187A6.055,6.055,0,0,0,4.26,24.048a9.063,9.063,0,0,0,3,.574c1.318.06,1.738.075,5.091.075s3.774-.014,5.091-.075a9.057,9.057,0,0,0,3-.574,6.314,6.314,0,0,0,3.612-3.612,9.032,9.032,0,0,0,.574-3c.06-1.318.074-1.738.074-5.091s-.014-3.774-.074-5.091a9.057,9.057,0,0,0-.574-3,6.072,6.072,0,0,0-1.424-2.187A6.056,6.056,0,0,0,20.437.648a9.043,9.043,0,0,0-3-.574C16.123.015,15.7,0,12.349,0S8.575.014,7.257.075" fill="#354052"/>
</svg>
