<svg xmlns="http://www.w3.org/2000/svg" width="90.433" height="66.203" viewBox="0 0 90.433 66.203">
  <g id="entrega_1_" data-name="entrega (1)" transform="translate(0 -68.597)">
    <path id="Caminho_28" data-name="Caminho 28" d="M349.382,164.8H330.709v33.844H361.3V183.411l-3.568-12.332a8.7,8.7,0,0,0-8.353-6.279" transform="translate(-272.302 -79.212)" fill="#ff7058"/>
    <path id="Caminho_29" data-name="Caminho 29" d="M376.65,203.068l-3.18-10.992a4.474,4.474,0,0,0-4.275-3.212H354.773v14.2Z" transform="translate(-292.116 -99.026)" fill="#84dbff"/>
    <path id="Caminho_30" data-name="Caminho 30" d="M376.62,203.036H354.731v-14.2Z" transform="translate(-292.081 -99)" fill="#cdd6e0"/>
    <path id="Caminho_31" data-name="Caminho 31" d="M376.65,203.068l-3.18-10.992a4.474,4.474,0,0,0-4.275-3.212H354.773Z" transform="translate(-292.116 -99.026)" fill="#f2f2f2"/>
    <path id="Caminho_32" data-name="Caminho 32" d="M5.652,68.6h47.1a5.652,5.652,0,0,1,5.652,5.652V119.43H0V74.249A5.651,5.651,0,0,1,5.652,68.6" fill="#ffd15c"/>
    <path id="Caminho_33" data-name="Caminho 33" d="M132.063,68.651V83.584L129.878,81.4l-2.291,2.291L125.3,81.4l-2.289,2.291L120.717,81.4,118.4,83.69,116.111,81.4,113.9,83.611V68.651Z" transform="translate(-93.783 -0.044)" fill="#f2f2f2"/>
    <path id="Caminho_34" data-name="Caminho 34" d="M90.469,325.489v6.386H.043v-6.386H9.481a12.949,12.949,0,0,1,22.606,0H62.456a12.931,12.931,0,0,1,22.586,0Z" transform="translate(-0.035 -206.062)" fill="#334a5e"/>
    <path id="Caminho_35" data-name="Caminho 35" d="M384.277,350.263a9.024,9.024,0,1,1-9.026-9.026,9.026,9.026,0,0,1,9.026,9.026" transform="translate(-301.548 -224.488)" fill="#40596b"/>
    <path id="Caminho_36" data-name="Caminho 36" d="M404.042,375.443a3.626,3.626,0,1,1-3.625-3.625,3.625,3.625,0,0,1,3.625,3.625" transform="translate(-326.711 -249.668)" fill="#acb3ba"/>
    <path id="Caminho_37" data-name="Caminho 37" d="M84.387,350.263a9.026,9.026,0,1,1-9.026-9.026,9.027,9.027,0,0,1,9.026,9.026" transform="translate(-54.62 -224.488)" fill="#40596b"/>
    <path id="Caminho_38" data-name="Caminho 38" d="M104.158,375.443a3.626,3.626,0,1,1-3.625-3.625,3.624,3.624,0,0,1,3.625,3.625" transform="translate(-79.792 -249.668)" fill="#acb3ba"/>
  </g>
</svg>
