<svg id="twitter" xmlns="http://www.w3.org/2000/svg" width="28.043" height="22.783" viewBox="0 0 28.043 22.783">
  <path id="Caminho_1" data-name="Caminho 1" d="M18.737.005V0h1.315l.48.1A5.139,5.139,0,0,1,21.4.341,6.205,6.205,0,0,1,22.164.7a7.213,7.213,0,0,1,.665.412,4.093,4.093,0,0,1,.531.44.736.736,0,0,0,.726.121,9.707,9.707,0,0,0,1.062-.316q.569-.2,1.125-.455T26.95.577L27.077.5l.005-.008L27.107.48l.025-.013.025-.013.025-.013.005-.008L27.2.43,27.2.425l.005-.008L27.233.41,27.259.4l-.005.038L27.246.48l-.013.038-.013.038-.013.025L27.2.607l-.013.038a.88.88,0,0,0-.025.1,4.241,4.241,0,0,1-.24.506,6.325,6.325,0,0,1-.569.9,4.414,4.414,0,0,1-.612.688q-.273.235-.362.329a1.086,1.086,0,0,1-.215.177l-.126.083-.025.013-.025.013-.005.008-.008.005-.008.005-.005.008-.025.013-.025.013L24.9,3.51l-.008.005-.008.005-.005.008-.005.008-.008.005-.008.005-.005.008h.126l.708-.152a12.67,12.67,0,0,0,1.353-.367l.683-.228.076-.025.038-.013.025-.013.025-.013.025-.013.025-.013.051-.008.051-.005v.051l-.013.005-.013.008-.005.008L28,2.782,28,2.787l-.005.008-.005.008-.008.005-.008.005-.005.008-.005.008-.008.005-.013.025-.013.025-.008.005-.321.43a3.554,3.554,0,0,1-.341.43q-.025.008-.071.076a7.248,7.248,0,0,1-.536.564,12.727,12.727,0,0,1-.966.877,1.2,1.2,0,0,0-.48.951q-.008.561-.058,1.269t-.19,1.53a18.238,18.238,0,0,1-.43,1.859A16.9,16.9,0,0,1,23.82,12.9a15.761,15.761,0,0,1-.872,1.77q-.455.784-.834,1.328t-.771,1.024q-.392.48-.991,1.082t-.657.657q-.058.056-.5.415t-.936.723a10.823,10.823,0,0,1-.915.6q-.417.24-1.006.549a11.973,11.973,0,0,1-1.269.577q-.683.266-1.441.493a13.165,13.165,0,0,1-1.467.354q-.708.126-1.606.215l-.9.089v.013H8.016V22.77L7.8,22.758q-.215-.013-.354-.025T6.4,22.593q-.91-.126-1.429-.253t-1.542-.48a15.008,15.008,0,0,1-1.752-.716q-.726-.359-.91-.455t-.41-.233l-.228-.139L.121,20.31.114,20.3.106,20.3.1,20.292.076,20.28l-.025-.013-.005-.008-.008-.005L.03,20.249l-.005-.008L.02,20.234l-.008-.005H0v-.051l.025.005.025.008.114.013q.114.013.62.038t1.075,0a11.307,11.307,0,0,0,1.163-.114,13.105,13.105,0,0,0,1.4-.3,10.369,10.369,0,0,0,1.487-.511q.675-.3.961-.445a9.355,9.355,0,0,0,.865-.536l.582-.392.005-.008.008-.005.008-.005.005-.008.005-.008.008-.005.008-.005.005-.008.025-.008.025-.005.005-.025.008-.025.008-.005.005-.008-.2-.013-.392-.025a3.8,3.8,0,0,1-.594-.114,5.7,5.7,0,0,1-.872-.3,6.725,6.725,0,0,1-.91-.48,4.48,4.48,0,0,1-.64-.463q-.195-.182-.506-.516a5.116,5.116,0,0,1-.536-.69,6.2,6.2,0,0,1-.435-.817l-.21-.46-.013-.038-.013-.038-.008-.025-.005-.025.038.005.038.008.278.038a6.181,6.181,0,0,0,.872.025,6.754,6.754,0,0,0,.822-.051q.228-.038.278-.051l.051-.013.063-.013.063-.013.005-.008.008-.005.008-.005.005-.008-.051-.013-.051-.013-.051-.013-.051-.013-.051-.013q-.051-.013-.177-.051t-.683-.278a5.221,5.221,0,0,1-.885-.468,6.112,6.112,0,0,1-.627-.5,7.156,7.156,0,0,1-.65-.7,5.058,5.058,0,0,1-.632-1,6.074,6.074,0,0,1-.417-1.087,5.87,5.87,0,0,1-.182-1.049l-.046-.531L1.113,8,1.138,8l.025.013.025.013.025.013.025.013.392.177a4.945,4.945,0,0,0,.974.3q.582.126.7.139l.114.013h.228l-.005-.008-.008-.005-.008-.005-.005-.008-.005-.008L3.6,8.648,3.6,8.643l-.005-.008-.025-.013L3.54,8.61,3.535,8.6,3.527,8.6,3.52,8.592l-.005-.008L3.49,8.572l-.025-.013-.005-.008L3.242,8.39a3.316,3.316,0,0,1-.435-.412q-.228-.253-.455-.531a4.1,4.1,0,0,1-.4-.594,7.2,7.2,0,0,1-.374-.8,5.708,5.708,0,0,1-.3-.979A5.57,5.57,0,0,1,1.163,4.1a6.13,6.13,0,0,1,.025-.822A5.371,5.371,0,0,1,1.34,2.5a6.01,6.01,0,0,1,.329-.91l.215-.48L1.9,1.075l.013-.038.008-.005.005-.008.005-.008.008-.005.008.005.005.008.005.008.008.005.008.005.005.008.005.008.008.005L2,1.087l.013.025.008.005.005.008.341.379q.341.379.809.847a4.755,4.755,0,0,0,.518.485.37.37,0,0,1,.126.116,5.162,5.162,0,0,0,.506.448q.43.354,1.125.822t1.542.923a15.05,15.05,0,0,0,1.821.822q.974.367,1.365.48t1.34.291q.948.177,1.429.228t.657.058l.177.005-.005-.038-.008-.038-.051-.316a5.942,5.942,0,0,1-.051-.885A5.8,5.8,0,0,1,13.756,4.7a6.216,6.216,0,0,1,.266-.974,5.2,5.2,0,0,1,.346-.791,7.785,7.785,0,0,1,.45-.675,5.452,5.452,0,0,1,.721-.784A5.318,5.318,0,0,1,16.55.759,6.575,6.575,0,0,1,17.6.278a4.89,4.89,0,0,1,.809-.215,2.812,2.812,0,0,0,.329-.058Z" fill="#354052"/>
</svg>
